Coordinates
version=1
nRows=6
nColumns=63
inDegrees=yes

Units are S.I. units (second, meters, Newtons, ...)
If the header above contains a line with 'inDegrees', this indicates whether rotational values are in degrees (yes) or radians (no).

endheader
time	pelvis_tilt	pelvis_list	pelvis_rotation	pelvis_tx	pelvis_ty	pelvis_tz	hip_flexion_r	hip_adduction_r	hip_rotation_r	knee_angle_r	knee_angle_r_beta	ankle_angle_r	subtalar_angle_r	mtp_angle_r	hip_flexion_l	hip_adduction_l	hip_rotation_l	knee_angle_l	knee_angle_l_beta	ankle_angle_l	subtalar_angle_l	mtp_angle_l	L5_S1_Flex_Ext	L5_S1_Lat_Bending	L5_S1_axial_rotation	L4_L5_Flex_Ext	L4_L5_Lat_Bending	L4_L5_axial_rotation	L3_L4_Flex_Ext	L3_L4_Lat_Bending	L3_L4_axial_rotation	L2_L3_Flex_Ext	L2_L3_Lat_Bending	L2_L3_axial_rotation	L1_L2_Flex_Ext	L1_L2_Lat_Bending	L1_L2_axial_rotation	L1_T12_Flex_Ext	L1_T12_Lat_Bending	L1_T12_axial_rotation	Abs_r3	Abs_r2	Abs_r1	Abs_t1	Abs_t2	neck_flexion	neck_bending	neck_rotation	arm_flex_r	arm_add_r	arm_rot_r	elbow_flex_r	pro_sup_r	wrist_flex_r	wrist_dev_r	arm_flex_l	arm_add_l	arm_rot_l	elbow_flex_l	pro_sup_l	wrist_flex_l	wrist_dev_l
      9.16666667	      4.06095246	     -1.56111334	   -183.13508934	      2.65317543	      0.89301262	      0.44560219	     11.98026228	     -2.21365286	     -6.41567443	     20.15397616	      0.35175324	     20.85023589	    -10.60529228	      0.00000000	      4.12381924	      0.90407546	    -10.67884129	      7.35763222	      0.12841491	     10.69291889	    -16.49902392	      0.00000000	      0.00067542	     -0.24120382	      0.06415614	      0.00125432	     -0.32080107	      0.06816590	      0.00110965	     -0.58646296	      0.06816590	      0.00077194	     -0.58646296	      0.05613662	      0.00062719	     -0.49186282	      0.05212687	      0.00038593	     -0.37362471	      0.04811711	      0.00482445	     -2.72854580	      0.35681721	      0.00000000	      0.00000000	     -0.00000000	      0.00000000	      0.00000000	     -4.16078988	    -13.38379917	     29.98440774	     22.36592166	     52.23749001	      0.00000000	      5.00000014	    -13.36360369	    -11.55733549	      9.42042725	     24.50061764	     53.12848259	      0.00000000	      5.00000014
      9.20000000	      4.24922181	     -1.58592579	   -183.76473933	      2.65244780	      0.89273617	      0.44577367	     12.07742257	     -1.98150344	     -4.84230818	     19.93065393	      0.34785553	     20.40351577	    -11.93330571	      0.00000000	      4.24962717	      1.09665177	    -11.68704723	      7.13307277	      0.12449561	     10.36264457	    -16.72780548	      0.00000000	      0.00077933	     -0.26204850	     -0.03349795	      0.00144730	     -0.34852450	     -0.03559157	      0.00128036	     -0.63714472	     -0.03559157	      0.00089070	     -0.63714472	     -0.02931071	      0.00072369	     -0.53436930	     -0.02721709	      0.00044531	     -0.40591312	     -0.02512346	      0.00556669	     -2.96434502	     -0.18630556	      0.00000000	      0.00000000	     -0.00000000	      0.00000000	      0.00000000	     -3.04078131	    -13.93827293	     34.39265470	     22.08907049	     53.68216098	      0.00000000	      5.00000014	    -14.85707764	     -9.95227832	      1.46131027	     25.69222086	     51.19566093	      0.00000000	      5.00000014
      9.23333333	      4.40863150	     -1.43545998	   -183.75945992	      2.65159729	      0.89206917	      0.44596299	     12.23205161	     -1.92659886	     -5.38079038	     20.18475109	      0.35229037	     20.66269070	    -11.41656890	      0.00000000	      4.46028376	      1.02195240	    -11.58824965	      7.22232775	      0.12605340	     10.64626633	    -16.84129805	      0.00000000	      0.00073277	     -0.26559082	     -0.18972971	      0.00136082	     -0.35323579	     -0.20158782	      0.00120386	     -0.64575752	     -0.20158782	      0.00083748	     -0.64575752	     -0.16601350	      0.00068045	     -0.54159280	     -0.15415539	      0.00041870	     -0.41140018	     -0.14229728	      0.00523408	     -3.00441648	     -1.05521973	      0.00000000	      0.00000000	     -0.00000000	      0.00000000	      0.00000000	     -2.64266847	    -13.99426206	     34.94356634	     22.19872583	     53.85567645	      0.00000000	      5.00000014	    -15.70400786	     -9.80687049	      0.97552998	     26.45990009	     51.09244935	      0.00000000	      5.00000014
      9.26666667	      4.52842865	     -1.06661059	   -183.73168607	      2.65069891	      0.89114796	      0.44574199	     12.54417132	     -1.71597951	     -6.34015614	     20.94176710	      0.36550279	     21.18651888	    -10.60528952	      0.00000000	      4.43612366	      0.64073320	    -10.87080156	      7.10019415	      0.12392177	     11.35722806	    -16.80346009	      0.00000000	     -0.00047117	     -0.24570693	     -0.30583933	     -0.00087501	     -0.32679022	     -0.32495429	     -0.00077409	     -0.59741183	     -0.32495429	     -0.00053850	     -0.59741183	     -0.26760941	     -0.00043753	     -0.50104558	     -0.24849446	     -0.00026923	     -0.38060004	     -0.22937950	     -0.00336552	     -2.77948595	     -1.70098661	      0.00000000	      0.00000000	     -0.00000000	      0.00000000	      0.00000000	     -2.38746905	    -14.09818762	     35.46870580	     22.33255044	     54.01779986	      0.00000000	      5.00000014	    -16.30510248	     -9.60244285	      0.27799830	     26.85432688	     50.94923574	      0.00000000	      5.00000014
      9.30000000	      4.62791001	     -0.82867599	   -183.25607929	      2.64997295	      0.89028032	      0.44620245	     12.65992163	     -2.62503209	    -12.37843250	     21.79690749	      0.38042780	     23.44383538	     -2.73901460	      0.00000000	      4.60283197	      0.36317085	     -9.69772808	      7.39825414	      0.12912389	     12.10250816	    -17.08541957	      0.00000000	      0.00069872	     -0.24256727	     -0.48705247	      0.00129760	     -0.32261447	     -0.51749325	      0.00114793	     -0.58977805	     -0.51749325	      0.00079857	     -0.58977805	     -0.42617091	      0.00064883	     -0.49464317	     -0.39573013	      0.00039925	     -0.37573670	     -0.36528935	      0.00499091	     -2.74396944	     -2.70883970	      0.00000000	      0.00000000	     -0.00000000	      0.00000000	      0.00000000	     -1.38447205	    -14.75461211	     41.26369968	     22.26440216	     55.44768178	      0.00000000	      5.00000014	    -17.14956616	     -8.30611027	     -5.72069860	     27.70106537	     50.17060426	      0.00000000	      5.00000014
      9.33333333	      4.70196691	     -0.39179120	   -182.46282922	      2.64967981	      0.88974685	      0.44647895	     12.57378261	     -2.61957862	    -14.99837454	     22.10205969	      0.38575371	     24.09821219	     -0.58250665	      0.00000000	      4.82208273	     -0.21546780	     -7.90867127	      7.88739819	      0.13766107	     12.82726300	    -17.37563025	      0.00000000	      0.00095259	     -0.20581015	     -0.61458520	      0.00176905	     -0.27372750	     -0.65299678	      0.00156500	     -0.50040680	     -0.65299678	      0.00108871	     -0.50040680	     -0.53776205	      0.00088457	     -0.41968806	     -0.49935048	      0.00054431	     -0.31879992	     -0.46093890	      0.00680423	     -2.32816559	     -3.41813851	      0.00000000	      0.00000000	     -0.00000000	      0.00000000	      0.00000000	     -1.51809017	    -14.80378331	     41.01188267	     22.46291267	     55.11926099	      0.00000000	      5.00000014	    -17.17361303	     -8.30633874	     -5.54654149	     27.71149978	     50.37800480	      0.00000000	      5.00000014
